<svg version="1.1" xmlns="http://www.w3.org/2000/svg" viewBox="0 0 979.95703125 621.374755859375" width="979.95703125" height="621.374755859375">
  <!-- svg-source:excalidraw -->
  
  <defs>
    <style>
      @font-face {
        font-family: "Virgil";
        src: url("https://excalidraw.com/Virgil.woff2");
      }
      @font-face {
        font-family: "Cascadia";
        src: url("https://excalidraw.com/Cascadia.woff2");
      }
    </style>
  </defs>
  <rect x="0" y="0" width="979.95703125" height="621.374755859375" fill="#ffffff"></rect><g transform="translate(324.83203125 191.45703125) rotate(0 52.087890625 121.8984375)"><path d="M1.6227999161928892 -1.8252454530447721 C35.43786156898314 -2.3240828919854906, 69.19608232516694 -1.6386424112764144, 104.54705689661205 1.8467376101762056 M-0.5096933310851455 0.5932151889428496 C29.672127876667584 0.6825094588550928, 60.81628371729385 0.9409115978035334, 105.15822931472212 -0.2494677985087037 M102.62554312610928 -0.378286879276356 C105.1258388605385 72.68835809975089, 106.25605842917967 144.10387186912394, 104.35301827040679 244.99256070658473 M103.56374165854355 0.6874527678989716 C103.82168793755781 85.93036894284003, 104.48236709802846 169.73632093760082, 104.26269341483896 243.071110903976 M102.70595495216548 241.81165223009884 C65.41817364137205 245.74758120018075, 27.45868326990967 245.48527921873162, 1.8425189089030027 244.0271266568452 M104.4599682027474 243.78527106996626 C80.71893617247297 243.3222242291357, 57.38146191960331 244.62557303861638, -0.19686005171388388 243.16531871911138 M1.5068654614806012 244.42994435510454 C-0.4456239174152672 167.81168392872095, -0.10044291455016019 91.46728682011162, -0.7327270876682946 -1.4722141362525354 M0.8017984680140597 243.40312026918022 C2.237302728888417 147.36846025411464, 2.8267166996665836 52.01529914845658, -0.6205757129198346 0.4730712466634808" stroke="#000000" stroke-width="1" fill="none"></path></g><g transform="translate(650.0546875 228.0234375) rotate(0 77.443359375 74.40234375)"><path d="M57.364497599052896 3.4261121042796674 C67.39435278343356 -0.14325854629784018, 81.37857727060226 -0.7701203601889794, 92.63072758783821 1.268131143453914 C103.88287790507415 3.3063826470968074, 115.93664130281653 9.020988745071904, 124.87739950246859 15.655621126137028 C133.81815770212066 22.290253507202152, 141.4118480175247 31.488843227123468, 146.27527678575063 41.07592542984465 C151.13870555397656 50.66300763256584, 153.82013488458603 62.35364499717446, 154.0579721118242 73.17811434246413 C154.29580933906237 84.0025836877538, 152.28702331557434 96.11820443163015, 147.70230014917973 106.02274150158266 C143.11757698278512 115.92727857153517, 135.20002464543785 125.87719605532699, 126.54963311345648 132.6053367621792 C117.89924158147511 139.33347746903144, 106.73551171785934 143.89250868630745, 95.79995095729149 146.39158574269598 C84.86439019672363 148.8906627990845, 72.11100578417772 149.9955584035801, 60.936268550049405 147.5997991005104 C49.76153131592109 145.2040397974407, 37.70259176679603 138.91218617457196, 28.751527552521594 132.01702992427784 C19.800463338247155 125.12187367398371, 11.92787775390974 116.02159171056817, 7.229883264402773 106.22886159874565 C2.5318887748958048 96.43613148692313, 0.5086702886929544 84.17442553475053, 0.563560615479787 73.26064925334275 C0.6184509422666196 62.346872971934964, 2.7182213780002265 50.31717566304033, 7.559225225123768 40.746203910298966 C12.40022907224731 31.175232157557602, 20.625050129682485 22.48141399626927, 29.609583698221037 15.834818736894562 C38.59411726675959 9.188223477519852, 55.09933782431338 3.2155842999125617, 61.46642663635508 0.8666323540507079 C67.83351544839678 -1.4823195918111458, 67.36783211207927 0.26909128579044506, 67.81211657047123 1.74110706172344 M101.91862405996122 4.576645846624501 C112.37434686967379 6.645065298066681, 122.83771216885877 13.765850086667555, 130.8070310044141 21.145868043398266 C138.77634983996947 28.525886000128978, 145.55478041788672 38.6868617518259, 149.7345370732933 48.85675358700877 C153.91429372869987 59.026645422191635, 156.82354498790934 71.34962688231074, 155.88557093685364 82.16521905449547 C154.94759688579794 92.98081122668019, 150.1837224173655 104.48303910543835, 144.10669276695904 113.7503066201171 C138.0296631165526 123.01757413479585, 129.03583286314753 131.96798930160384, 119.42339303441491 137.76882414256795 C109.81095320568228 143.56965898353207, 97.72684041407821 147.59834226510162, 86.43205379456326 148.55531566590173 C75.13726717504831 149.51228906670184, 62.051373005452554 147.10568921039925, 51.65467331732519 143.5106645473686 C41.25797362919783 139.91563988433796, 31.834600842812552 134.2263698164234, 24.051855665799074 126.98516768771779 C16.269110488785596 119.74396555901221, 8.846873612985132 110.18118990901611, 4.958202255244331 100.06345177513509 C1.0695308975035296 89.94571364125407, -0.6659930048762941 77.05621742702239, 0.7198275193542685 66.2787388844317 C2.1056480435848313 55.50126034184101, 7.423881518835533 44.693329138491976, 13.273125400627706 35.39858051959094 C19.12236928241988 26.10383190068991, 26.594436747091898 16.297644183852757, 35.8152908101073 10.510247171025497 C45.0361448731227 4.722850158198238, 57.82190804485935 1.704514085951459, 68.59824977872013 0.6741984426273859 C79.3745915125809 -0.35611720069668706, 95.223807827256 3.7219329784128967, 100.47334121327198 4.3283533110810595 C105.72287459928796 4.934773643749222, 100.51622380308092 3.5082703304114715, 100.09545009481607 4.312720438636362" stroke="#000000" stroke-width="1" fill="none"></path></g><g transform="translate(703.498046875 289.92578125) rotate(0 24 12.5)"><text x="24" y="18" font-family="Virgil, Segoe UI Emoji" font-size="20px" fill="#000000" text-anchor="middle" style="white-space: pre;" direction="ltr">Orbit</text></g><g><g transform="translate(442.90625 288.8258832492057) rotate(0 93.23189229209197 -4.510735598279922)"><path d="M0.5166003484278918 0.8154189627617596 C31.63378153315508 -0.6594687941418387, 155.14191444324072 -8.087188941114295, 185.947184235756 -9.836890159321603" stroke="#c92a2a" stroke-width="1.5" fill="none" stroke-dasharray="12 8"></path></g><g transform="translate(442.90625 288.8258832492057) rotate(0 93.23189229209197 -4.510735598279922)"><path d="M159.76276755811418 3.8671218859660392 C164.90018352289752 -0.06761821460756656, 171.68504005579894 -5.13782917680209, 184.30176152565022 -8.03652967527288" stroke="#c92a2a" stroke-width="1.5" fill="none"></path></g><g transform="translate(442.90625 288.8258832492057) rotate(0 93.23189229209197 -4.510735598279922)"><path d="M158.56433445505687 -16.61906273888141 C163.817193676946 -15.703570527212658, 170.8860885553289 -15.918389919176432, 184.30176152565022 -8.03652967527288" stroke="#c92a2a" stroke-width="1.5" fill="none"></path></g></g><g><g transform="translate(626.7002751261949 331.6593139012373) rotate(345.07906009779543 -93.16675138668262 5.90262447303212)"><path d="M0.18422065190970893 0.5150883335620164 C-30.846253033383185 2.572762571045681, -155.50403784117844 9.254053528949244, -186.51772342527505 11.290160612502245" stroke="#364fc7" stroke-width="1.5" fill="none" stroke-dasharray="12 8"></path></g><g transform="translate(626.7002751261949 331.6593139012373) rotate(345.07906009779543 -93.16675138668262 5.90262447303212)"><path d="M-158.12078724797092 -0.8959095244044519 C-167.88511133318596 3.4175952805777574, -172.97552146640555 7.382780191955746, -188.05240494104322 10.678712967150954" stroke="#364fc7" stroke-width="1.5" fill="none"></path></g><g transform="translate(626.7002751261949 331.6593139012373) rotate(345.07906009779543 -93.16675138668262 5.90262447303212)"><path d="M-156.91375578081082 19.589770289141526 C-166.82625063101884 18.3311134314465, -172.24508584745482 16.722283679115954, -188.05240494104322 10.678712967150954" stroke="#364fc7" stroke-width="1.5" fill="none"></path></g></g><g transform="translate(175.26171875 28.22265625) rotate(0 52.298828125 46.86328125)"><path d="M53.374212609604 -0.38312180526554585 C66.20060223896486 12.765126871374706, 84.97806125948134 27.138702313752187, 103.5473305452615 46.72790656797588 M53.407531968317926 -0.02435732539743185 C73.09638537145838 17.490663738390978, 93.17505676472865 36.699721432226326, 103.95504387374967 47.45798602048308 M103.78125874884427 46.676221711561084 C91.10135992374926 59.14149830615013, 79.59681660728056 70.04480479432704, 54.67488335259259 94.02087549678981 M104.31203683372587 47.865157031454146 C91.826219214546 58.0480676275511, 78.89973357308779 69.33520233281746, 53.235547236166894 93.82719951216131 M53.51090811379254 91.77212337963283 C39.44366772774454 78.95977787339027, 21.782040816301812 65.63133545777556, 0.4891140926629305 45.026366932317615 M52.946887425147 93.92946177069098 C40.4048555558388 82.45891201073172, 27.339112471866315 71.70762631359248, 0.2650425648316741 46.86964698974043 M0.9111221302300692 47.776348335668445 C13.958613649448381 33.428760347319766, 30.509024084331468 20.84505040169693, 51.23056231625378 -0.5264321137219667 M-0.7354321265593171 46.95581885520369 C17.182785124527292 30.41480306581594, 34.86861374891364 15.254244965119284, 53.01066242810339 0.686066978611052" stroke="#e67700" stroke-width="1" fill="none"></path></g><g transform="translate(329.220703125 10) rotate(0 52.298828125 46.86328125)"><path d="M52.74116168729961 1.6158076394349337 C64.59005422631432 9.140966432102106, 73.33534773025036 21.176017294291487, 104.7934723328799 47.238136695697904 M53.67194714490324 -0.43936837557703257 C65.43502952329546 11.700633284067772, 79.96246358205026 24.06241479412656, 104.90455084387213 47.10894080158323 M106.02360205166042 46.82979195006192 C85.23869889240756 64.40582880615682, 67.75668775115751 83.14806231984028, 51.538725120946765 92.52687572129071 M104.65116124693304 47.7397069549188 C84.65931623151715 64.27529415437468, 64.40251000728217 84.3350941371414, 52.999358856119215 92.77790623065084 M54.576182110235095 93.61320565827191 C40.524855485901135 81.9779369899338, 26.94670171352838 69.49173262481315, 1.2164100836962461 48.33115010149777 M52.23183199111372 93.48860555049032 C36.84836128856135 79.99369486604249, 20.8201844233003 65.57312249431182, -0.761987573467195 47.09784116502851 M0.21012012474238873 45.70854143984616 C20.84729596526362 30.353992269830776, 41.54359489652328 11.513781215986235, 54.932667357847095 -0.21396936289966106 M-0.35639584716409445 47.416061541996896 C14.52128431509249 33.490108309080824, 29.722335759187118 20.408383123623203, 53.31988289300352 -0.9328718269243836" stroke="#e67700" stroke-width="1" fill="none"></path></g><g transform="translate(474.111328125 31.89453125) rotate(0 52.298828125 46.86328125)"><path d="M53.024266408756375 -0.6361829210072756 C71.33324321055981 18.981251443370752, 93.39583526482268 35.515418717551555, 104.4836869109422 45.586034340783954 M53.53492387291044 -0.6897307401522994 C64.41133233060981 9.944286390528395, 76.01746137580675 22.086761413555905, 104.12573163863271 46.72708468977362 M106.09412573464215 47.07849316112697 C89.21792774100977 63.442537065862965, 72.03919544469791 75.5036314855408, 51.81000261195004 95.36264394037426 M104.41080229636282 47.37280397955328 C90.77258668903771 59.52119720044855, 76.57844001171536 70.89801030779697, 53.277114174328744 94.30487152282149 M51.41267471201718 91.94758628122509 C38.63315393840508 82.45319036974935, 24.69147141165645 68.52832421812957, 1.4072857964783907 46.092681808397174 M52.39724495168775 94.13762541953474 C41.02217401665206 82.85252451594322, 28.459502094784185 71.71546386753877, 0.7754806196317077 46.22499024216086 M0.15795289166271687 47.54403345100582 C14.033892759820448 35.36161647523754, 24.95611629826017 25.43399760873057, 54.6586541403085 0.8940068315714598 M-0.2964280927553773 46.11953460518271 C11.624675653027372 36.88732785330154, 24.977761732405053 25.55632535050623, 53.18854948040098 -0.5280315643176436" stroke="#e67700" stroke-width="1" fill="none"></path></g><g><g transform="translate(253.14683281560133 106.1689898741443) rotate(0 51.421421636337186 38.36413543722536)"><path d="M-0.930011709406972 -0.5952247839421033 C16.25073363895023 11.958128453961693, 86.42399096612155 63.24113909091395, 103.7728549820813 76.25069617098083 M0.7825934138149022 1.7066782591491938 C17.806723724254013 14.305536152891001, 86.25054206941546 64.44944619055431, 103.19464804208602 77.3234956583928" stroke="#e67700" stroke-width="1" fill="none"></path></g><g transform="translate(253.14683281560133 106.1689898741443) rotate(0 51.421421636337186 38.36413543722536)"><path d="M73.46154749340482 69.89807961669744 C83.31632944469949 72.17785271679163, 95.60642088300077 76.13177807290646, 102.93409180431391 76.0133421610098 M73.75547219294228 67.93725098923774 C84.78484826948781 71.55852740674565, 95.43168137251968 74.16932222452684, 103.56497822026486 77.53152652950843" stroke="#e67700" stroke-width="1" fill="none"></path></g><g transform="translate(253.14683281560133 106.1689898741443) rotate(0 51.421421636337186 38.36413543722536)"><path d="M85.71333430108217 53.43558520044744 C91.3174169609398 61.503529041711886, 99.22914565409803 71.34057768226612, 102.93409180431391 76.0133421610098 M86.00725900061963 51.47475657298774 C92.52941245953129 61.39051874581659, 98.53249502231272 70.24103341339361, 103.56497822026486 77.53152652950843" stroke="#e67700" stroke-width="1" fill="none"></path></g></g><g><g transform="translate(380.96136296371265 104.80580550340142) rotate(0 2.8755409597532093 40.47966102236349)"><path d="M0.8309717696160079 0.6382911343127489 C1.92772065055622 13.957670426397977, 5.160799374294943 66.51733372673124, 5.942988700181445 79.7324310211358 M-0.19190678067505362 -0.07220996551215642 C0.7808450986172094 13.427902778416332, 4.097755800200171 67.50096859797566, 4.864399052173098 81.0315320102391" stroke="#e67700" stroke-width="1" fill="none"></path></g><g transform="translate(380.96136296371265 104.80580550340142) rotate(0 2.8755409597532093 40.47966102236349)"><path d="M-5.989758712998055 53.08599925083859 C-4.910095119907817 59.102066575202926, -1.6404428034349952 66.1363186757296, 5.793798823788961 80.08790767955456 M-6.9145806457981696 53.00648105652822 C-3.8296494019316407 59.428108832428286, -1.22213646803079 64.96703590305985, 4.091021805949708 81.33847956097547" stroke="#e67700" stroke-width="1" fill="none"></path></g><g transform="translate(380.96136296371265 104.80580550340142) rotate(0 2.8755409597532093 40.47966102236349)"><path d="M14.495172391760091 51.866327155908266 C10.515757860360061 58.32535389140027, 8.728200638081438 65.66071207429975, 5.793798823788961 80.08790767955456 M13.570350458959977 51.7868089615979 C12.23353675505589 58.40706490609829, 10.426615121194715 64.20882725939012, 4.091021805949708 81.33847956097547" stroke="#e67700" stroke-width="1" fill="none"></path></g></g><g><g transform="translate(486.65524256038043 102.81123518994903) rotate(0 -29.50453091260249 38.06227062564864)"><path d="M0.7982659142464399 1.0939465899020433 C-8.952825117447167 13.451953659245609, -49.39714654106989 61.905305772469646, -59.434598885629704 74.51637947694505 M-0.24178321011364456 0.6226646042615176 C-9.973804818131715 13.060821915456893, -49.912199823449996 63.09831200246633, -59.80732773945146 75.50187664703573" stroke="#e67700" stroke-width="1" fill="none"></path></g><g transform="translate(486.65524256038043 102.81123518994903) rotate(0 -29.50453091260249 38.06227062564864)"><path d="M-48.4251174795004 48.891925615430225 C-54.04165085278682 55.300801530544696, -52.43005639366341 59.923907819734595, -61.493956157494715 76.26150928103472 M-50.057430750553536 47.49801860953157 C-52.329958936186614 55.627640477911285, -55.378646567661875 65.79434644220684, -60.2762547717657 75.92509980631168" stroke="#e67700" stroke-width="1" fill="none"></path></g><g transform="translate(486.65524256038043 102.81123518994903) rotate(0 -29.50453091260249 38.06227062564864)"><path d="M-32.382955327827055 61.68915327946976 C-41.61075380465938 65.35528529135402, -43.57114367220496 67.12893175034293, -61.493956157494715 76.26150928103472 M-34.01526859888019 60.2952462735711 C-41.25171509126817 64.52281103493398, -49.29503025896601 70.70517965905036, -60.2762547717657 75.92509980631168" stroke="#e67700" stroke-width="1" fill="none"></path></g></g><g transform="translate(291.44140625 499.495849609375) rotate(0 82.607421875 55.939453125)"><path d="M27.9697265625 0 L137.24511718750006 0 L149.4818725585938 1.74810791015625 L154.2891693115235 3.9332427978515625 L158.22241210937506 6.992431640625 L161.2816009521485 10.925674438476562 L163.4667358398438 15.73297119140625 L165.21484375000006 27.9697265625 L164.777816772461 90.46458435058594 L163.4667358398438 96.14593505859375 L161.2816009521485 100.95323181152344 L158.22241210937506 104.886474609375 L154.2891693115235 107.94566345214844 L149.4818725585938 110.13079833984375 L137.24511718750006 111.87890625 L27.9697265625 111.87890625 L15.73297119140625 110.13079833984375 L10.925674438476562 107.94566345214844 L6.992431640625 104.886474609375 L3.9332427978515625 100.95323181152344 L1.74810791015625 96.14593505859375 L0.4370269775390625 90.46458435058594 L0.4370269775390625 21.414321899414062 L1.74810791015625 15.73297119140625 L3.9332427978515625 10.925674438476562 L6.992431640625 6.992431640625 L10.925674438476562 3.9332427978515625 L15.73297119140625 1.74810791015625 L21.414321899414062 0.4370269775390625 L27.9697265625 0" stroke="none" stroke-width="0" fill="#ffffff"></path><path d="M27.9697265625 0 M27.9697265625 0 C62.05126885475676 0, 96.13281114701353 0, 137.24511718750006 0 M27.9697265625 0 C70.88880214787298 0, 113.80787773324597 0, 137.24511718750006 0 M137.24511718750006 0 C155.89160156250006 0, 165.21484375000006 9.3232421875, 165.21484375000006 27.9697265625 M137.24511718750006 0 C155.89160156250006 0, 165.21484375000006 9.3232421875, 165.21484375000006 27.9697265625 M165.21484375000006 27.9697265625 C165.21484375000006 45.373959295182246, 165.21484375000006 62.7781920278645, 165.21484375000006 83.9091796875 M165.21484375000006 27.9697265625 C165.21484375000006 44.94508273848787, 165.21484375000006 61.920438914475746, 165.21484375000006 83.9091796875 M165.21484375000006 83.9091796875 C165.21484375000006 102.5556640625, 155.89160156250006 111.87890625, 137.24511718750006 111.87890625 M165.21484375000006 83.9091796875 C165.21484375000006 102.5556640625, 155.89160156250006 111.87890625, 137.24511718750006 111.87890625 M137.24511718750006 111.87890625 C112.19076532391287 111.87890625, 87.13641346032567 111.87890625, 27.9697265625 111.87890625 M137.24511718750006 111.87890625 C96.05725232036114 111.87890625, 54.86938745322223 111.87890625, 27.9697265625 111.87890625 M27.9697265625 111.87890625 C9.3232421875 111.87890625, 0 102.5556640625, 0 83.9091796875 M27.9697265625 111.87890625 C9.3232421875 111.87890625, 0 102.5556640625, 0 83.9091796875 M0 83.9091796875 C0 65.05383747319156, 0 46.19849525888313, 0 27.9697265625 M0 83.9091796875 C0 69.5841644676124, 0 55.25914924772478, 0 27.9697265625 M0 27.9697265625 C0 9.3232421875, 9.3232421875 0, 27.9697265625 0 M0 27.9697265625 C0 9.3232421875, 9.3232421875 0, 27.9697265625 0" stroke="#364fc7" stroke-width="1" fill="none"></path></g><g transform="translate(321.48046875 526.314208984375) rotate(0 56 30)"><text x="56" y="14" font-family="Virgil, Segoe UI Emoji" font-size="16px" fill="#000000" text-anchor="middle" style="white-space: pre;" direction="ltr">Activities</text><text x="56" y="34" font-family="Virgil, Segoe UI Emoji" font-size="16px" fill="#000000" text-anchor="middle" style="white-space: pre;" direction="ltr">Members</text><text x="56" y="54" font-family="Virgil, Segoe UI Emoji" font-size="16px" fill="#000000" text-anchor="middle" style="white-space: pre;" direction="ltr">Activity Types</text></g><g><g transform="translate(371.280041927384 444.5046177803649) rotate(0 0.3396728050599336 23.34116838523505)"><path d="M0 0 C0.11322426835331119 7.780389461745017, 0.5661213417665559 38.901947308725084, 0.6793456101198672 46.6823367704701 M0 0 C0.11322426835331119 7.780389461745017, 0.5661213417665559 38.901947308725084, 0.6793456101198672 46.6823367704701" stroke="#364fc7" stroke-width="1" fill="none"></path></g><g transform="translate(371.280041927384 444.5046177803649) rotate(0 0.3396728050599336 23.34116838523505)"><path d="M-7.622992174783262 24.864988019813815 C-4.7838885952131 32.32574359727935, -1.944785015642939 39.78649917474488, 0.6793456101198672 46.6823367704701 M-7.622992174783262 24.864988019813815 C-5.8540104521121545 29.513617379032617, -4.085028729441048 34.16224673825142, 0.6793456101198672 46.6823367704701" stroke="#364fc7" stroke-width="1" fill="none"></path></g><g transform="translate(371.280041927384 444.5046177803649) rotate(0 0.3396728050599336 23.34116838523505)"><path d="M8.343307338230057 24.632638136872956 C5.722505614704393 32.17284909202375, 3.1017038911787296 39.713060047174544, 0.6793456101198672 46.6823367704701 M8.343307338230057 24.632638136872956 C6.710344602730373 29.330774358717193, 5.07738186723069 34.02891058056143, 0.6793456101198672 46.6823367704701" stroke="#364fc7" stroke-width="1" fill="none"></path></g></g><g transform="translate(332.419921875 293.35546875) rotate(0 44.5 20)"><text x="44.5" y="14" font-family="Virgil, Segoe UI Emoji" font-size="16px" fill="#000000" text-anchor="middle" style="white-space: pre;" direction="ltr">RedwoodJS</text><text x="44.5" y="34" font-family="Virgil, Segoe UI Emoji" font-size="16px" fill="#000000" text-anchor="middle" style="white-space: pre;" direction="ltr">API</text></g><g transform="translate(494.44140625 150.5367431640625) rotate(0 77 30)"><text x="77" y="14" font-family="Virgil, Segoe UI Emoji" font-size="16px" fill="#000000" text-anchor="middle" style="white-space: pre;" direction="ltr">Incoming Webhooks</text><text x="77" y="34" font-family="Virgil, Segoe UI Emoji" font-size="16px" fill="#000000" text-anchor="middle" style="white-space: pre;" direction="ltr">(Unsupported Orbit </text><text x="77" y="54" font-family="Virgil, Segoe UI Emoji" font-size="16px" fill="#000000" text-anchor="middle" style="white-space: pre;" direction="ltr">Integration)</text></g><g transform="translate(446.65625 231.8453369140625) rotate(0 93 20)"><text x="93" y="14" font-family="Virgil, Segoe UI Emoji" font-size="16px" fill="#000000" text-anchor="middle" style="white-space: pre;" direction="ltr">Outgoing Webhook</text><text x="93" y="34" font-family="Virgil, Segoe UI Emoji" font-size="16px" fill="#000000" text-anchor="middle" style="white-space: pre;" direction="ltr">(POST custom activity)</text></g><g transform="translate(491.3359375 375.9664306640625) rotate(0 67.5 20)"><text x="67.5" y="14" font-family="Virgil, Segoe UI Emoji" font-size="16px" fill="#000000" text-anchor="middle" style="white-space: pre;" direction="ltr">Incoming Webhook</text><text x="67.5" y="34" font-family="Virgil, Segoe UI Emoji" font-size="16px" fill="#000000" text-anchor="middle" style="white-space: pre;" direction="ltr">(activity:created)</text></g><g><g transform="translate(419.90234375 386.1890869140625) rotate(0 -18.865234375 19.0703125)"><path d="M0 0 C-6.288411458333333 6.356770833333333, -31.442057291666668 31.783854166666668, -37.73046875 38.140625" stroke="#364fc7" stroke-width="1.5" fill="none" stroke-dasharray="3 6"></path></g><g transform="translate(419.90234375 386.1890869140625) rotate(0 -18.865234375 19.0703125)"><path d="M-26.52537823293114 13.7681029028589 C-29.895774630927193 21.099151283159884, -33.266171028923246 28.430199663460872, -37.73046875 38.140625" stroke="#364fc7" stroke-width="1.5" fill="none" stroke-dasharray="3 4"></path></g><g transform="translate(419.90234375 386.1890869140625) rotate(0 -18.865234375 19.0703125)"><path d="M-13.480516203900557 26.672683232478555 C-20.7746967005637 30.122143062080504, -28.068877197226843 33.57160289168246, -37.73046875 38.140625" stroke="#364fc7" stroke-width="1.5" fill="none" stroke-dasharray="3 4"></path></g></g><g><g transform="translate(363.80859375 197.2047119140625) rotate(0 28.923828125 35.017578125)"><path d="M0 0 C9.641276041666666 11.672526041666666, 48.206380208333336 58.362630208333336, 57.84765625 70.03515625" stroke="#c92a2a" stroke-width="1.5" fill="none" stroke-dasharray="3 6"></path></g><g transform="translate(363.80859375 197.2047119140625) rotate(0 28.923828125 35.017578125)"><path d="M31.983902960047324 54.83429226940791 C41.82974670410768 60.620974884640155, 51.67559044816803 66.4076574998724, 57.84765625 70.03515625" stroke="#c92a2a" stroke-width="1.5" fill="none" stroke-dasharray="3 4"></path></g><g transform="translate(363.80859375 197.2047119140625) rotate(0 28.923828125 35.017578125)"><path d="M47.80579878728656 41.76571871228896 C51.62854478898196 52.52736113937254, 55.45129079067736 63.28900356645612, 57.84765625 70.03515625" stroke="#c92a2a" stroke-width="1.5" fill="none" stroke-dasharray="3 4"></path></g></g><g transform="translate(208.90465403492271 194.2281494140625) rotate(0 41.22736048253887 56.883916740597556)"><path d="M0 0 L82.45472096507777 0 L82.45472096507777 113.76783348119513 L0 113.76783348119513" stroke="none" stroke-width="0" fill="#ffffff"></path><path d="M0 0 C22.23958332637301 0, 44.47916665274602 0, 82.45472096507777 0 M0 0 C28.157236081765188 0, 56.314472163530375 0, 82.45472096507777 0 M82.45472096507777 0 C82.45472096507777 33.57357420739704, 82.45472096507777 67.14714841479407, 82.45472096507777 113.76783348119513 M82.45472096507777 0 C82.45472096507777 28.764681619970222, 82.45472096507777 57.529363239940444, 82.45472096507777 113.76783348119513 M82.45472096507777 113.76783348119513 C56.239156522578924 113.76783348119513, 30.023592080080086 113.76783348119513, 0 113.76783348119513 M82.45472096507777 113.76783348119513 C49.89858436629025 113.76783348119513, 17.342447767502733 113.76783348119513, 0 113.76783348119513 M0 113.76783348119513 C0 90.06224234813067, 0 66.3566512150662, 0 0 M0 113.76783348119513 C0 75.04653721114505, 0 36.325240941094975, 0 0" stroke="#862e9c" stroke-width="1" fill="none"></path></g><g transform="translate(215.287109375 233.6343994140625) rotate(0 35.5 20)"><text x="35.5" y="14" font-family="Virgil, Segoe UI Emoji" font-size="16px" fill="#862e9c" text-anchor="middle" style="white-space: pre;" direction="ltr">Webhook</text><text x="35.5" y="34" font-family="Virgil, Segoe UI Emoji" font-size="16px" fill="#862e9c" text-anchor="middle" style="white-space: pre;" direction="ltr">Simulator</text></g><g transform="translate(91.08203125 181.1851806640625) rotate(0 27.01171875 28.95703125)"><path d="M28 0 L54.0234375 29 L28 57.9140625 L0 29" stroke="none" stroke-width="0" fill="#ffffff" fill-rule="evenodd"></path><path d="M28 0 C35.45974473306778 8.31299082832411, 42.919489466135566 16.62598165664822, 54.0234375 29 M28 0 C38.12637641462861 11.284632017742844, 48.252752829257226 22.569264035485688, 54.0234375 29 M54.0234375 29 C44.854891103102275 39.18696794203497, 35.686344706204544 49.373935884069944, 28 57.9140625 M54.0234375 29 C44.504317246583376 39.576482755297185, 34.98519699316675 50.15296551059437, 28 57.9140625 M28 57.9140625 C20.159425789490342 49.817532044336986, 12.318851578980684 41.72100158867397, 0 29 M28 57.9140625 C17.059703981503844 46.61661954116789, 6.1194079630076885 35.319176582335785, 0 29 M0 29 C7.277534371241927 21.462553686928004, 14.555068742483854 13.925107373856008, 28 0 M0 29 C6.658139515295625 22.104069787729532, 13.31627903059125 15.208139575459063, 28 0" stroke="#862e9c" stroke-width="1" fill="none"></path></g><g transform="translate(89.8515625 259.0093994140625) rotate(0 27.01171875 28.95703125)"><path d="M28 0 L54.0234375 29 L28 57.9140625 L0 29" stroke="none" stroke-width="0" fill="#ffffff" fill-rule="evenodd"></path><path d="M28 0 C37.519120253416624 10.607917856704445, 47.03824050683325 21.21583571340889, 54.0234375 29 M28 0 C35.28709617611821 8.12059471802786, 42.57419235223642 16.24118943605572, 54.0234375 29 M54.0234375 29 C43.855433583255945 40.29744295883211, 33.68742966651189 51.594885917664215, 28 57.9140625 M54.0234375 29 C47.25963532628157 36.515110130570974, 40.49583315256314 44.03022026114195, 28 57.9140625 M28 57.9140625 C21.341860484704377 51.038567425750806, 14.68372096940875 44.16307235150161, 0 29 M28 57.9140625 C17.10032823719084 46.65856997930896, 6.200656474381681 35.403077458617915, 0 29 M0 29 C10.945426142588259 17.66366578089073, 21.890852285176518 6.327331561781463, 28 0 M0 29 C7.367960506305099 21.368898047041146, 14.735921012610198 13.737796094082293, 28 0" stroke="#862e9c" stroke-width="1" fill="none"></path></g><g transform="translate(88.3046875 336.0015869140625) rotate(0 27.01171875 28.95703125)"><path d="M28 0 L54.0234375 29 L28 57.9140625 L0 29" stroke="none" stroke-width="0" fill="#ffffff" fill-rule="evenodd"></path><path d="M28 0 C38.04227256121012 11.190908360015602, 48.08454512242024 22.381816720031203, 54.0234375 29 M28 0 C37.311549293444116 10.376604916621, 46.62309858688823 20.753209833242, 54.0234375 29 M54.0234375 29 C43.64943397827083 40.526324537352046, 33.275430456541656 52.05264907470409, 28 57.9140625 M54.0234375 29 C48.68494749778547 34.93147748369738, 43.34645749557094 40.862954967394764, 28 57.9140625 M28 57.9140625 C22.2257138248533 51.95127423710437, 16.451427649706602 45.98848597420874, 0 29 M28 57.9140625 C18.01580045856535 47.603927873088836, 8.031600917130707 37.293793246177664, 0 29 M0 29 C9.810565722361208 18.83905693041161, 19.621131444722415 8.678113860823213, 28 0 M0 29 C9.081718021258713 19.59393490655348, 18.163436042517425 10.187869813106953, 28 0" stroke="#0b7285" stroke-width="1" fill="none"></path></g><g transform="translate(89.61328125 408.8062744140625) rotate(0 27.01171875 28.95703125)"><path d="M28 0 L54.0234375 29 L28 57.9140625 L0 29" stroke="none" stroke-width="0" fill="#ffffff" fill-rule="evenodd"></path><path d="M28 0 C33.46304436960126 6.087907745409757, 38.926088739202534 12.175815490819515, 54.0234375 29 M28 0 C37.748032581996085 10.863013192545623, 47.49606516399217 21.726026385091245, 54.0234375 29 M54.0234375 29 C47.5720397474397 36.168004527837184, 41.120641994879406 43.33600905567437, 28 57.9140625 M54.0234375 29 C47.17125217651119 36.61331068214713, 40.31906685302238 44.22662136429426, 28 57.9140625 M28 57.9140625 C21.65267475284636 51.35952825342756, 15.30534950569272 44.804994006855125, 0 29 M28 57.9140625 C16.954484116658566 46.50796476444011, 5.9089682333171325 35.10186702888022, 0 29 M0 29 C8.87859922014177 19.804307950567456, 17.75719844028354 10.608615901134907, 28 0 M0 29 C10.729116368666293 17.88770090388134, 21.458232737332587 6.77540180776268, 28 0" stroke="#0b7285" stroke-width="1" fill="none"></path></g><g transform="translate(694.58203125 41.186279296875) rotate(0 55.08984375 57.537109375)"><path d="M56 0 L110.1796875 58 L56 115.07421875 L0 58" stroke="none" stroke-width="0" fill="#ffffff" fill-rule="evenodd"></path><path d="M56 0 C74.81422388688588 20.140850488282737, 93.62844777377177 40.281700976565475, 110.1796875 58 M56 0 C67.39628794520468 12.199861817620695, 78.79257589040935 24.39972363524139, 110.1796875 58 M110.1796875 58 C93.21660359266752 75.8693308558064, 76.25351968533505 93.7386617116128, 56 115.07421875 M110.1796875 58 C97.98675962422203 70.84433087188117, 85.79383174844406 83.68866174376235, 56 115.07421875 M56 115.07421875 C42.4323872692883 101.24634559092992, 28.8647745385766 87.41847243185984, 0 58 M56 115.07421875 C41.300995563715695 100.09325098921946, 26.60199112743139 85.1122832284389, 0 58 M0 58 C11.811174165457487 45.766998185776174, 23.622348330914974 33.53399637155235, 56 0 M0 58 C18.792198754101996 38.53665129039436, 37.58439750820399 19.073302580788727, 56 0" stroke="#1864ab" stroke-width="1" fill="none"></path></g><g transform="translate(839.03125 111.574951171875) rotate(0 55.08984375 57.537109375)"><path d="M56 0 L110.1796875 58 L56 115.07421875 L0 58" stroke="none" stroke-width="0" fill="#ffffff" fill-rule="evenodd"></path><path d="M56 0 C68.12809716140691 12.983272289298476, 80.25619432281383 25.966544578596952, 110.1796875 58 M56 0 C71.90839284164758 17.030123786069453, 87.81678568329517 34.060247572138906, 110.1796875 58 M110.1796875 58 C90.87545362127639 78.33555596265542, 71.57121974255278 98.67111192531084, 56 115.07421875 M110.1796875 58 C91.26370854622292 77.92655865130764, 72.34772959244583 97.85311730261529, 56 115.07421875 M56 115.07421875 C34.519799136370416 93.1819744127726, 13.039598272740832 71.28973007554522, 0 58 M56 115.07421875 C33.66686254814267 92.31267638747994, 11.333725096285335 69.5511340249599, 0 58 M0 58 C18.99540216997266 38.32619060967117, 37.99080433994532 18.652381219342345, 56 0 M0 58 C20.6815771214664 36.57979512419551, 41.3631542429328 15.159590248391027, 56 0" stroke="#1864ab" stroke-width="1" fill="none"></path></g><g><g transform="translate(733.0507259006549 149.37462056606049) rotate(0 -10.082386069524205 38.97368356544315)"><path d="M0 0 C-3.3607953565080684 12.991227855147718, -16.803976782540342 64.9561392757386, -20.16477213904841 77.9473671308863 M0 0 C-3.3607953565080684 12.991227855147718, -16.803976782540342 64.9561392757386, -20.16477213904841 77.9473671308863" stroke="#1864ab" stroke-width="1" fill="none"></path></g><g transform="translate(733.0507259006549 149.37462056606049) rotate(0 -10.082386069524205 38.97368356544315)"><path d="M-23.037913981181273 48.085266468759656 C-22.453722150780028 54.157084779158026, -21.869530320378782 60.2289030895564, -20.16477213904841 77.9473671308863 M-23.037913981181273 48.085266468759656 C-22.130219252152564 57.519423519848814, -21.222524523123855 66.95358057093797, -20.16477213904841 77.9473671308863" stroke="#1864ab" stroke-width="1" fill="none"></path></g><g transform="translate(733.0507259006549 149.37462056606049) rotate(0 -10.082386069524205 38.97368356544315)"><path d="M-3.1707381766796985 53.22485088180966 C-6.626110849477251 58.251644828380414, -10.081483522274803 63.27843877495117, -20.16477213904841 77.9473671308863 M-3.1707381766796985 53.22485088180966 C-8.539562933735883 61.03528939150567, -13.908387690792066 68.84572790120168, -20.16477213904841 77.9473671308863" stroke="#1864ab" stroke-width="1" fill="none"></path></g></g><g><g transform="translate(866.0147999256105 203.33320846007825) rotate(0 -39.256856191155975 20.039764774848493)"><path d="M0 0 C-13.085618730385326 6.679921591616164, -65.42809365192663 33.39960795808082, -78.51371238231195 40.079529549696986 M0 0 C-13.085618730385326 6.679921591616164, -65.42809365192663 33.39960795808082, -78.51371238231195 40.079529549696986" stroke="#1864ab" stroke-width="1" fill="none"></path></g><g transform="translate(866.0147999256105 203.33320846007825) rotate(0 -39.256856191155975 20.039764774848493)"><path d="M-58.070354503494194 18.123457072166318 C-65.20482095117994 25.78584127257233, -72.33928739886568 33.44822547297834, -78.51371238231195 40.079529549696986 M-58.070354503494194 18.123457072166318 C-62.28312248652194 22.647950539172378, -66.49589046954968 27.17244400617844, -78.51371238231195 40.079529549696986" stroke="#1864ab" stroke-width="1" fill="none"></path></g><g transform="translate(866.0147999256105 203.33320846007825) rotate(0 -39.256856191155975 20.039764774848493)"><path d="M-48.74010033461468 36.40093938045882 C-59.130704336162026 37.68471958392577, -69.52130833770937 38.968499787392716, -78.51371238231195 40.079529549696986 M-48.74010033461468 36.40093938045882 C-54.87555617886182 37.15898739681255, -61.01101202310896 37.917035413166275, -78.51371238231195 40.079529549696986" stroke="#1864ab" stroke-width="1" fill="none"></path></g></g><g transform="translate(10 495.2874755859375) rotate(0 48.5 10)"><text x="0" y="14" font-family="Virgil, Segoe UI Emoji" font-size="16px" fill="#495057" text-anchor="start" style="white-space: pre;" direction="ltr">Faker Data</text></g><g transform="translate(827.25390625 43.609130859375) rotate(0 61.5 20)"><text x="61.5" y="14" font-family="Virgil, Segoe UI Emoji" font-size="16px" fill="#000000" text-anchor="middle" style="white-space: pre;" direction="ltr">Supported Orbit</text><text x="61.5" y="34" font-family="Virgil, Segoe UI Emoji" font-size="16px" fill="#000000" text-anchor="middle" style="white-space: pre;" direction="ltr">Integrations</text></g><g transform="translate(724.671875 88.723388671875) rotate(0 25 10)"><text x="25" y="14" font-family="Virgil, Segoe UI Emoji" font-size="16px" fill="#1864ab" text-anchor="middle" style="white-space: pre;" direction="ltr">GitHub</text></g><g transform="translate(865.12109375 159.112060546875) rotate(0 29 10)"><text x="29" y="14" font-family="Virgil, Segoe UI Emoji" font-size="16px" fill="#1864ab" text-anchor="middle" style="white-space: pre;" direction="ltr">Twitter</text></g><g transform="translate(859.77734375 252.048583984375) rotate(0 55.08984375 57.537109375)"><path d="M56 0 L110.1796875 58 L56 115.07421875 L0 58" stroke="none" stroke-width="0" fill="#ffffff" fill-rule="evenodd"></path><path d="M56 0 C70.68578112822797 15.72130340244621, 85.37156225645595 31.44260680489242, 110.1796875 58 M56 0 C68.25947936526427 13.123918501473964, 80.51895873052854 26.24783700294793, 110.1796875 58 M110.1796875 58 C98.19040684438005 70.62980386872842, 86.2011261887601 83.25960773745683, 56 115.07421875 M110.1796875 58 C91.36486149875054 77.82000163693266, 72.55003549750109 97.6400032738653, 56 115.07421875 M56 115.07421875 C42.51048769876361 101.32594418015033, 29.020975397527216 87.57766961030066, 0 58 M56 115.07421875 C38.39679089859128 97.13333648293228, 20.79358179718256 79.19245421586456, 0 58 M0 58 C17.122546554356813 40.26593392584473, 34.245093108713625 22.531867851689455, 56 0 M0 58 C16.585500394552948 40.82216030564159, 33.171000789105896 23.644320611283177, 56 0" stroke="#1864ab" stroke-width="1" fill="none"></path></g><g transform="translate(908.3671875 299.585693359375) rotate(0 6.5 10)"><text x="6.5" y="14" font-family="Virgil, Segoe UI Emoji" font-size="16px" fill="#1864ab" text-anchor="middle" style="white-space: pre;" direction="ltr">...</text></g><g><g transform="translate(855.6503307207868 295.7476237038529) rotate(0 -20.028100468015964 -3.851639438899582)"><path d="M0 0 C-6.676033489338654 -1.2838798129665274, -33.38016744669327 -6.4193990648326364, -40.05620093603193 -7.703278877799164 M0 0 C-6.676033489338654 -1.2838798129665274, -33.38016744669327 -6.4193990648326364, -40.05620093603193 -7.703278877799164" stroke="#1864ab" stroke-width="1" fill="none"></path></g><g transform="translate(855.6503307207868 295.7476237038529) rotate(0 -20.028100468015964 -3.851639438899582)"><path d="M-19.91860444494729 -10.933935511748963 C-27.823564768649288 -9.66574978153115, -35.72852509235128 -8.39756405131334, -40.05620093603193 -7.703278877799164 M-19.91860444494729 -10.933935511748963 C-26.918319206307245 -9.810977519241991, -33.9180339676672 -8.688019526735017, -40.05620093603193 -7.703278877799164" stroke="#1864ab" stroke-width="1" fill="none"></path></g><g transform="translate(855.6503307207868 295.7476237038529) rotate(0 -20.028100468015964 -3.851639438899582)"><path d="M-22.55328099080976 2.7660920734744643 C-29.424005994022956 -1.3436318461887362, -36.29473099723616 -5.453355765851937, -40.05620093603193 -7.703278877799164 M-22.55328099080976 2.7660920734744643 C-28.637197070949387 -0.8730021164516746, -34.721113151089014 -4.5120963063778134, -40.05620093603193 -7.703278877799164" stroke="#1864ab" stroke-width="1" fill="none"></path></g></g><g transform="translate(188.060546875 58.37890625) rotate(0 39.5 10)"><text x="39.5" y="14" font-family="Virgil, Segoe UI Emoji" font-size="16px" fill="#000000" text-anchor="middle" style="white-space: pre;" direction="ltr">Discourse</text></g><g transform="translate(166.94921875 83.51611328125) rotate(0 67 10)"><text x="67" y="14" font-family="Virgil, Segoe UI Emoji" font-size="16px" fill="#495057" text-anchor="middle" style="white-space: pre;" direction="ltr">Additional events</text></g><g transform="translate(344.51953125 46.86328125) rotate(0 37 10)"><text x="37" y="14" font-family="Virgil, Segoe UI Emoji" font-size="16px" fill="#000000" text-anchor="middle" style="white-space: pre;" direction="ltr">Livestorm</text></g><g transform="translate(500.41015625 68.7578125) rotate(0 26 10)"><text x="26" y="14" font-family="Virgil, Segoe UI Emoji" font-size="16px" fill="#000000" text-anchor="middle" style="white-space: pre;" direction="ltr">Meetup</text></g><g transform="translate(208.751953125 316.8289528907261) rotate(0 41.22736048253887 56.883916740597556)"><path d="M0 0 L82.45472096507777 0 L82.45472096507777 113.76783348119513 L0 113.76783348119513" stroke="none" stroke-width="0" fill="#ffffff"></path><path d="M0 0 C16.547515104976878 0, 33.095030209953755 0, 82.45472096507777 0 M0 0 C25.377875416034513 0, 50.755750832069026 0, 82.45472096507777 0 M82.45472096507777 0 C82.45472096507777 41.651757760072144, 82.45472096507777 83.30351552014429, 82.45472096507777 113.76783348119513 M82.45472096507777 0 C82.45472096507777 34.45647602445417, 82.45472096507777 68.91295204890834, 82.45472096507777 113.76783348119513 M82.45472096507777 113.76783348119513 C49.86290965550741 113.76783348119513, 17.271098345937048 113.76783348119513, 0 113.76783348119513 M82.45472096507777 113.76783348119513 C55.52422058426704 113.76783348119513, 28.593720203456314 113.76783348119513, 0 113.76783348119513 M0 113.76783348119513 C0 80.60524458271817, 0 47.4426556842412, 0 0 M0 113.76783348119513 C0 79.9220116811704, 0 46.076189881145694, 0 0" stroke="#0b7285" stroke-width="1" fill="none"></path></g><g transform="translate(214.8125 355.33642578125) rotate(0 35.5 20)"><text x="35.5" y="14" font-family="Virgil, Segoe UI Emoji" font-size="16px" fill="#0b7285" text-anchor="middle" style="white-space: pre;" direction="ltr">API</text><text x="35.5" y="34" font-family="Virgil, Segoe UI Emoji" font-size="16px" fill="#0b7285" text-anchor="middle" style="white-space: pre;" direction="ltr">Simulator</text></g><g><g transform="translate(155.51171875 279.54736328125) rotate(0 21.47265625 -7.201171875)"><path d="M0 0 C7.157552083333333 -2.400390625, 35.787760416666664 -12.001953125, 42.9453125 -14.40234375 M0 0 C7.157552083333333 -2.400390625, 35.787760416666664 -12.001953125, 42.9453125 -14.40234375" stroke="#862e9c" stroke-width="1" fill="none"></path></g><g transform="translate(155.51171875 279.54736328125) rotate(0 21.47265625 -7.201171875)"><path d="M25.23056171000285 -0.29137470984365876 C30.957085838854105 -4.852929407839009, 36.683609967705365 -9.41448410583436, 42.9453125 -14.40234375 M25.23056171000285 -0.29137470984365876 C28.99515609776238 -3.29012278618787, 32.75975048552191 -6.2888708625320815, 42.9453125 -14.40234375" stroke="#862e9c" stroke-width="1" fill="none"></path></g><g transform="translate(155.51171875 279.54736328125) rotate(0 21.47265625 -7.201171875)"><path d="M20.304670036402303 -14.979536646259296 C27.62355286447439 -14.792951518045312, 34.942435692546475 -14.606366389831328, 42.9453125 -14.40234375 M20.304670036402303 -14.979536646259296 C25.116074755787785 -14.856876318509196, 29.92747947517327 -14.734215990759093, 42.9453125 -14.40234375" stroke="#862e9c" stroke-width="1" fill="none"></path></g></g><g><g transform="translate(146.484375 223.43408203125) rotate(0 23.404296875 8.130859375)"><path d="M0 0 C7.801432291666667 2.7102864583333335, 39.007161458333336 13.551432291666666, 46.80859375 16.26171875 M0 0 C7.801432291666667 2.7102864583333335, 39.007161458333336 13.551432291666666, 46.80859375 16.26171875" stroke="#862e9c" stroke-width="1" fill="none"></path></g><g transform="translate(146.484375 223.43408203125) rotate(0 23.404296875 8.130859375)"><path d="M22.03483099308145 16.625951166288573 C30.912417447462957 16.495429824140537, 39.79000390184446 16.364908481992497, 46.80859375 16.26171875 M22.03483099308145 16.625951166288573 C28.81637006850125 16.52624663662823, 35.59790914392104 16.426542106967883, 46.80859375 16.26171875" stroke="#862e9c" stroke-width="1" fill="none"></path></g><g transform="translate(146.484375 223.43408203125) rotate(0 23.404296875 8.130859375)"><path d="M27.596666370678165 0.6164692230405748 C34.48118964389784 6.222886650977127, 41.36571291711752 11.82930407891368, 46.80859375 16.26171875 M27.596666370678165 0.6164692230405748 C32.855715531493004 4.899180414425433, 38.11476469230785 9.181891605810291, 46.80859375 16.26171875" stroke="#862e9c" stroke-width="1" fill="none"></path></g></g><g><g transform="translate(301.30078125 255.25439453125) rotate(0 10.814453125 0.603515625)"><path d="M0 0 C3.6048177083333335 0.201171875, 18.024088541666668 1.005859375, 21.62890625 1.20703125 M0 0 C3.6048177083333335 0.201171875, 18.024088541666668 1.005859375, 21.62890625 1.20703125" stroke="#862e9c" stroke-width="1" fill="none"></path></g><g transform="translate(301.30078125 255.25439453125) rotate(0 10.814453125 0.603515625)"><path d="M11.260229950040612 4.338672878459731 C14.358776227170996 3.402821837453808, 17.45732250430138 2.4669707964478853, 21.62890625 1.20703125 M11.260229950040612 4.338672878459731 C13.845998479081118 3.5576956222658955, 16.43176700812162 2.7767183660720605, 21.62890625 1.20703125" stroke="#862e9c" stroke-width="1" fill="none"></path></g><g transform="translate(301.30078125 255.25439453125) rotate(0 10.814453125 0.603515625)"><path d="M11.673058951164174 -3.0588487371427213 C14.648236562177757 -1.7840450717126546, 17.623414173191343 -0.5092414062825878, 21.62890625 1.20703125 M11.673058951164174 -3.0588487371427213 C14.155875067755975 -1.9950120524676902, 16.638691184347774 -0.9311753677926591, 21.62890625 1.20703125" stroke="#862e9c" stroke-width="1" fill="none"></path></g></g><g><g transform="translate(155.42578125 357.0865478515625) rotate(0 22.5859375 -1.30078125)"><path d="M0 0 C7.528645833333333 -0.43359375, 37.643229166666664 -2.16796875, 45.171875 -2.6015625 M0 0 C7.528645833333333 -0.43359375, 37.643229166666664 -2.16796875, 45.171875 -2.6015625" stroke="#0b7285" stroke-width="1" fill="none"></path></g><g transform="translate(155.42578125 357.0865478515625) rotate(0 22.5859375 -1.30078125)"><path d="M24.392929587278612 6.345617622776265 C31.588818751726677 3.2471487053674917, 38.78470791617474 0.14867978795871828, 45.171875 -2.6015625 M24.392929587278612 6.345617622776265 C29.014990974422773 4.355409989621325, 33.63705236156693 2.3652023564663858, 45.171875 -2.6015625" stroke="#0b7285" stroke-width="1" fill="none"></path></g><g transform="translate(155.42578125 357.0865478515625) rotate(0 22.5859375 -1.30078125)"><path d="M23.50314280815793 -9.104073539012926 C31.00717114499266 -6.8522100397859536, 38.51119948182739 -4.60034654055898, 45.171875 -2.6015625 M23.50314280815793 -9.104073539012926 C28.32312805683008 -7.657657246177397, 33.143113305502226 -6.211240953341867, 45.171875 -2.6015625" stroke="#0b7285" stroke-width="1" fill="none"></path></g></g><g><g transform="translate(148.38671875 425.5865478515625) rotate(0 26.697265625 -10.158203125)"><path d="M0 0 C8.899088541666666 -3.3860677083333335, 44.495442708333336 -16.930338541666668, 53.39453125 -20.31640625 M0 0 C8.899088541666666 -3.3860677083333335, 44.495442708333336 -16.930338541666668, 53.39453125 -20.31640625" stroke="#0b7285" stroke-width="1" fill="none"></path></g><g transform="translate(148.38671875 425.5865478515625) rotate(0 26.697265625 -10.158203125)"><path d="M31.781617835769964 -1.639815117527192 C38.44623109436104 -7.398976527243003, 45.11084435295212 -13.158137936958815, 53.39453125 -20.31640625 M31.781617835769964 -1.639815117527192 C39.23361126795053 -8.079383526803927, 46.685604700131094 -14.518951936080661, 53.39453125 -20.31640625" stroke="#0b7285" stroke-width="1" fill="none"></path></g><g transform="translate(148.38671875 425.5865478515625) rotate(0 26.697265625 -10.158203125)"><path d="M24.83299765828245 -19.90182034845909 C33.640305206913396 -20.02966311742217, 42.44761275554434 -20.157505886385252, 53.39453125 -20.31640625 M24.83299765828245 -19.90182034845909 C34.68083060237544 -20.044766898798915, 44.52866354646842 -20.18771344913874, 53.39453125 -20.31640625" stroke="#0b7285" stroke-width="1" fill="none"></path></g></g><g><g transform="translate(297.7421875 375.2701416015625) rotate(0 10.712890625 -0.30078125)"><path d="M0 0 C3.5709635416666665 -0.10026041666666667, 17.854817708333332 -0.5013020833333334, 21.42578125 -0.6015625 M0 0 C3.5709635416666665 -0.10026041666666667, 17.854817708333332 -0.5013020833333334, 21.42578125 -0.6015625" stroke="#0b7285" stroke-width="1" fill="none"></path></g><g transform="translate(297.7421875 375.2701416015625) rotate(0 10.712890625 -0.30078125)"><path d="M11.461830228635636 3.3451038080904745 C13.938419340133475 2.364140454860959, 16.415008451631312 1.3831771016314438, 21.42578125 -0.6015625 M11.461830228635636 3.3451038080904745 C14.307119832126777 2.2181002137551675, 17.15240943561792 1.0910966194198606, 21.42578125 -0.6015625" stroke="#0b7285" stroke-width="1" fill="none"></path></g><g transform="translate(297.7421875 375.2701416015625) rotate(0 10.712890625 -0.30078125)"><path d="M11.256083736166287 -3.982944965898951 C13.783812151930666 -3.1424856963883747, 16.311540567695044 -2.3020264268777986, 21.42578125 -0.6015625 M11.256083736166287 -3.982944965898951 C14.160125972495807 -3.017362903620596, 17.064168208825325 -2.051780841342241, 21.42578125 -0.6015625" stroke="#0b7285" stroke-width="1" fill="none"></path></g></g><g><g transform="translate(334.6875 256.8209228515625) rotate(0 42.08984375 10.904296875)"><path d="M0 0 C14.029947916666666 3.634765625, 70.14973958333333 18.173828125, 84.1796875 21.80859375" stroke="#c92a2a" stroke-width="1.5" fill="none" stroke-dasharray="3 6"></path></g><g transform="translate(334.6875 256.8209228515625) rotate(0 42.08984375 10.904296875)"><path d="M54.316579888815234 24.671250523488354 C60.5551523689787 24.07322529450819, 66.79372484914217 23.47520006552803, 84.1796875 21.80859375" stroke="#c92a2a" stroke-width="1.5" fill="none" stroke-dasharray="3 4"></path></g><g transform="translate(334.6875 256.8209228515625) rotate(0 42.08984375 10.904296875)"><path d="M59.46313955540429 4.805880504682307 C64.6265665442969 8.3578436935576, 69.78999353318952 11.909806882432893, 84.1796875 21.80859375" stroke="#c92a2a" stroke-width="1.5" fill="none" stroke-dasharray="3 4"></path></g></g><g><g transform="translate(330.7890625 374.4771728515625) rotate(0 45.990234375 -18.40234375)"><path d="M0 0 C15.330078125 -6.134114583333333, 76.650390625 -30.670572916666668, 91.98046875 -36.8046875" stroke="#c92a2a" stroke-width="1.5" fill="none" stroke-dasharray="3 6"></path></g><g transform="translate(330.7890625 374.4771728515625) rotate(0 45.990234375 -18.40234375)"><path d="M69.61902338340222 -16.805543490401405 C74.83179090261143 -21.467625327962175, 80.04455842182062 -26.12970716552294, 91.98046875 -36.8046875" stroke="#c92a2a" stroke-width="1.5" fill="none" stroke-dasharray="3 4"></path></g><g transform="translate(330.7890625 374.4771728515625) rotate(0 45.990234375 -18.40234375)"><path d="M61.99540581310241 -35.85811438064232 C68.98534584499244 -36.078773892147545, 75.97528587688245 -36.29943340365277, 91.98046875 -36.8046875" stroke="#c92a2a" stroke-width="1.5" fill="none" stroke-dasharray="3 4"></path></g></g></svg>