<svg version="1.1" xmlns="http://www.w3.org/2000/svg" viewBox="0 0 691.91015625 605.070068359375" width="691.91015625" height="605.070068359375">
  <!-- svg-source:excalidraw -->
  
  <defs>
    <style>
      @font-face {
        font-family: "Virgil";
        src: url("https://excalidraw.com/Virgil.woff2");
      }
      @font-face {
        font-family: "Cascadia";
        src: url("https://excalidraw.com/Cascadia.woff2");
      }
    </style>
  </defs>
  <rect x="0" y="0" width="691.91015625" height="605.070068359375" fill="#ffffff"></rect><g transform="translate(239.58984375 191.45703125) rotate(0 52.087890625 121.8984375)"><path d="M1.6227999161928892 -1.8252454530447721 C35.43786156898314 -2.3240828919854906, 69.19608232516694 -1.6386424112764144, 104.54705689661205 1.8467376101762056 M-0.5096933310851455 0.5932151889428496 C29.672127876667584 0.6825094588550928, 60.81628371729385 0.9409115978035334, 105.15822931472212 -0.2494677985087037 M102.62554312610928 -0.378286879276356 C105.1258388605385 72.68835809975089, 106.25605842917967 144.10387186912394, 104.35301827040679 244.99256070658473 M103.56374165854355 0.6874527678989716 C103.82168793755781 85.93036894284003, 104.48236709802846 169.73632093760082, 104.26269341483896 243.071110903976 M102.70595495216548 241.81165223009884 C65.41817364137205 245.74758120018075, 27.45868326990967 245.48527921873162, 1.8425189089030027 244.0271266568452 M104.4599682027474 243.78527106996626 C80.71893617247297 243.3222242291357, 57.38146191960331 244.62557303861638, -0.19686005171388388 243.16531871911138 M1.5068654614806012 244.42994435510454 C-0.4456239174152672 167.81168392872095, -0.10044291455016019 91.46728682011162, -0.7327270876682946 -1.4722141362525354 M0.8017984680140597 243.40312026918022 C2.237302728888417 147.36846025411464, 2.8267166996665836 52.01529914845658, -0.6205757129198346 0.4730712466634808" stroke="#000000" stroke-width="1" fill="none"></path></g><g transform="translate(527.0234375 225.1640625) rotate(0 77.443359375 74.40234375)"><path d="M57.364497599052896 3.4261121042796674 C67.39435278343356 -0.14325854629784018, 81.37857727060226 -0.7701203601889794, 92.63072758783821 1.268131143453914 C103.88287790507415 3.3063826470968074, 115.93664130281653 9.020988745071904, 124.87739950246859 15.655621126137028 C133.81815770212066 22.290253507202152, 141.4118480175247 31.488843227123468, 146.27527678575063 41.07592542984465 C151.13870555397656 50.66300763256584, 153.82013488458603 62.35364499717446, 154.0579721118242 73.17811434246413 C154.29580933906237 84.0025836877538, 152.28702331557434 96.11820443163015, 147.70230014917973 106.02274150158266 C143.11757698278512 115.92727857153517, 135.20002464543785 125.87719605532699, 126.54963311345648 132.6053367621792 C117.89924158147511 139.33347746903144, 106.73551171785934 143.89250868630745, 95.79995095729149 146.39158574269598 C84.86439019672363 148.8906627990845, 72.11100578417772 149.9955584035801, 60.936268550049405 147.5997991005104 C49.76153131592109 145.2040397974407, 37.70259176679603 138.91218617457196, 28.751527552521594 132.01702992427784 C19.800463338247155 125.12187367398371, 11.92787775390974 116.02159171056817, 7.229883264402773 106.22886159874565 C2.5318887748958048 96.43613148692313, 0.5086702886929544 84.17442553475053, 0.563560615479787 73.26064925334275 C0.6184509422666196 62.346872971934964, 2.7182213780002265 50.31717566304033, 7.559225225123768 40.746203910298966 C12.40022907224731 31.175232157557602, 20.625050129682485 22.48141399626927, 29.609583698221037 15.834818736894562 C38.59411726675959 9.188223477519852, 55.09933782431338 3.2155842999125617, 61.46642663635508 0.8666323540507079 C67.83351544839678 -1.4823195918111458, 67.36783211207927 0.26909128579044506, 67.81211657047123 1.74110706172344 M101.91862405996122 4.576645846624501 C112.37434686967379 6.645065298066681, 122.83771216885877 13.765850086667555, 130.8070310044141 21.145868043398266 C138.77634983996947 28.525886000128978, 145.55478041788672 38.6868617518259, 149.7345370732933 48.85675358700877 C153.91429372869987 59.026645422191635, 156.82354498790934 71.34962688231074, 155.88557093685364 82.16521905449547 C154.94759688579794 92.98081122668019, 150.1837224173655 104.48303910543835, 144.10669276695904 113.7503066201171 C138.0296631165526 123.01757413479585, 129.03583286314753 131.96798930160384, 119.42339303441491 137.76882414256795 C109.81095320568228 143.56965898353207, 97.72684041407821 147.59834226510162, 86.43205379456326 148.55531566590173 C75.13726717504831 149.51228906670184, 62.051373005452554 147.10568921039925, 51.65467331732519 143.5106645473686 C41.25797362919783 139.91563988433796, 31.834600842812552 134.2263698164234, 24.051855665799074 126.98516768771779 C16.269110488785596 119.74396555901221, 8.846873612985132 110.18118990901611, 4.958202255244331 100.06345177513509 C1.0695308975035296 89.94571364125407, -0.6659930048762941 77.05621742702239, 0.7198275193542685 66.2787388844317 C2.1056480435848313 55.50126034184101, 7.423881518835533 44.693329138491976, 13.273125400627706 35.39858051959094 C19.12236928241988 26.10383190068991, 26.594436747091898 16.297644183852757, 35.8152908101073 10.510247171025497 C45.0361448731227 4.722850158198238, 57.82190804485935 1.704514085951459, 68.59824977872013 0.6741984426273859 C79.3745915125809 -0.35611720069668706, 95.223807827256 3.7219329784128967, 100.47334121327198 4.3283533110810595 C105.72287459928796 4.934773643749222, 100.51622380308092 3.5082703304114715, 100.09545009481607 4.312720438636362" stroke="#000000" stroke-width="1" fill="none"></path></g><g transform="translate(580.466796875 287.06640625) rotate(0 24 12.5)"><text x="24" y="18" font-family="Virgil, Segoe UI Emoji" font-size="20px" fill="#000000" text-anchor="middle" style="white-space: pre;" direction="ltr">Orbit</text></g><g><g transform="translate(357.6640625 287.76525788608575) rotate(0 73.55840116726131 -4.639582041544571)"><path d="M0.5166003484278918 0.8154189627617596 C25.27393841594733 -0.7024176085633884, 123.34269885720198 -8.301933013222044, 147.7881255325095 -10.094583045850902 M-0.6713231979869307 0.19790997287258527 C24.08940083595268 -1.0359415302505441, 122.85302073720355 -7.134463457207059, 147.41167459215757 -8.597924774020374" stroke="#c92a2a" stroke-width="1" fill="none"></path></g><g transform="translate(357.6640625 287.76525788608575) rotate(0 73.55840116726131 -4.639582041544571)"><path d="M121.25251990420843 5.164440019828042 C126.38442879839437 1.2159785984803153, 133.16329803526935 -3.8680624374273065, 145.7662518820518 -6.79756428997165 M119.54835447998816 3.3952474834665267 C128.86692195789817 -0.23187052744021353, 139.3769632527527 -4.733218151557464, 146.57562627874103 -9.486061703852773" stroke="#c92a2a" stroke-width="1" fill="none"></path></g><g transform="translate(357.6640625 287.76525788608575) rotate(0 73.55840116726131 -4.639582041544571)"><path d="M120.01066819451862 -15.31915846083399 C125.26833219019284 -14.418187424271045, 132.34153033374923 -14.647449827051982, 145.7662518820518 -6.79756428997165 M118.30650277029835 -17.088350997195505 C128.26428758514868 -13.341522556277159, 139.2214529631707 -10.467826832485732, 146.57562627874103 -9.486061703852773" stroke="#c92a2a" stroke-width="1" fill="none"></path></g></g><g><g transform="translate(510.60272781537697 335.7358053204976) rotate(0 -75.12322937791157 6.201182631742739)"><path d="M0.18422065190970893 0.5150883335620164 C-24.658771189913526 2.6139167136092283, -124.56662862383016 9.459824241766977, -149.3928323644571 11.537085467883525 M-1.1782022351771593 -0.26009423665702336 C-26.164880180821193 2.066816609515677, -125.74319801055081 10.788957848916104, -150.43067940773292 12.662459500142514" stroke="#364fc7" stroke-width="1" fill="none"></path></g><g transform="translate(510.60272781537697 335.7358053204976) rotate(0 -75.12322937791157 6.201182631742739)"><path d="M-122.32356478735728 -0.17300103430814673 C-132.0147444029503 4.316753571526354, -137.0262960543972 8.45863320972459, -151.9653609235011 12.051011854791223 M-123.93703422877861 0.04359211667262386 C-132.4856529572416 4.996455625192264, -141.07724543455768 9.342198033802058, -149.53593126294984 13.050156324179053" stroke="#364fc7" stroke-width="1" fill="none"></path></g><g transform="translate(510.60272781537697 335.7358053204976) rotate(0 -75.12322937791157 6.201182631742739)"><path d="M-120.63130785505916 20.27831356551473 C-130.6029871776538 19.206001955058937, -136.074990473432 17.78321747133966, -151.9653609235011 12.051011854791223 M-122.24477729648049 20.4949067164955 C-131.55809223335706 18.46904557782035, -140.7259583768256 15.850388067517109, -149.53593126294984 13.050156324179053" stroke="#364fc7" stroke-width="1" fill="none"></path></g></g><g transform="translate(90.01953125 28.22265625) rotate(0 52.298828125 46.86328125)"><path d="M53.374212609604 -0.38312180526554585 C66.20060223896486 12.765126871374706, 84.97806125948134 27.138702313752187, 103.5473305452615 46.72790656797588 M53.407531968317926 -0.02435732539743185 C73.09638537145838 17.490663738390978, 93.17505676472865 36.699721432226326, 103.95504387374967 47.45798602048308 M103.78125874884427 46.676221711561084 C91.10135992374926 59.14149830615013, 79.59681660728056 70.04480479432704, 54.67488335259259 94.02087549678981 M104.31203683372587 47.865157031454146 C91.826219214546 58.0480676275511, 78.89973357308779 69.33520233281746, 53.235547236166894 93.82719951216131 M53.51090811379254 91.77212337963283 C39.44366772774454 78.95977787339027, 21.782040816301812 65.63133545777556, 0.4891140926629305 45.026366932317615 M52.946887425147 93.92946177069098 C40.4048555558388 82.45891201073172, 27.339112471866315 71.70762631359248, 0.2650425648316741 46.86964698974043 M0.9111221302300692 47.776348335668445 C13.958613649448381 33.428760347319766, 30.509024084331468 20.84505040169693, 51.23056231625378 -0.5264321137219667 M-0.7354321265593171 46.95581885520369 C17.182785124527292 30.41480306581594, 34.86861374891364 15.254244965119284, 53.01066242810339 0.686066978611052" stroke="#e67700" stroke-width="1" fill="none"></path></g><g transform="translate(243.978515625 10) rotate(0 52.298828125 46.86328125)"><path d="M52.74116168729961 1.6158076394349337 C64.59005422631432 9.140966432102106, 73.33534773025036 21.176017294291487, 104.7934723328799 47.238136695697904 M53.67194714490324 -0.43936837557703257 C65.43502952329546 11.700633284067772, 79.96246358205026 24.06241479412656, 104.90455084387213 47.10894080158323 M106.02360205166042 46.82979195006192 C85.23869889240756 64.40582880615682, 67.75668775115751 83.14806231984028, 51.538725120946765 92.52687572129071 M104.65116124693304 47.7397069549188 C84.65931623151715 64.27529415437468, 64.40251000728217 84.3350941371414, 52.999358856119215 92.77790623065084 M54.576182110235095 93.61320565827191 C40.524855485901135 81.9779369899338, 26.94670171352838 69.49173262481315, 1.2164100836962461 48.33115010149777 M52.23183199111372 93.48860555049032 C36.84836128856135 79.99369486604249, 20.8201844233003 65.57312249431182, -0.761987573467195 47.09784116502851 M0.21012012474238873 45.70854143984616 C20.84729596526362 30.353992269830776, 41.54359489652328 11.513781215986235, 54.932667357847095 -0.21396936289966106 M-0.35639584716409445 47.416061541996896 C14.52128431509249 33.490108309080824, 29.722335759187118 20.408383123623203, 53.31988289300352 -0.9328718269243836" stroke="#e67700" stroke-width="1" fill="none"></path></g><g transform="translate(388.869140625 31.89453125) rotate(0 52.298828125 46.86328125)"><path d="M53.024266408756375 -0.6361829210072756 C71.33324321055981 18.981251443370752, 93.39583526482268 35.515418717551555, 104.4836869109422 45.586034340783954 M53.53492387291044 -0.6897307401522994 C64.41133233060981 9.944286390528395, 76.01746137580675 22.086761413555905, 104.12573163863271 46.72708468977362 M106.09412573464215 47.07849316112697 C89.21792774100977 63.442537065862965, 72.03919544469791 75.5036314855408, 51.81000261195004 95.36264394037426 M104.41080229636282 47.37280397955328 C90.77258668903771 59.52119720044855, 76.57844001171536 70.89801030779697, 53.277114174328744 94.30487152282149 M51.41267471201718 91.94758628122509 C38.63315393840508 82.45319036974935, 24.69147141165645 68.52832421812957, 1.4072857964783907 46.092681808397174 M52.39724495168775 94.13762541953474 C41.02217401665206 82.85252451594322, 28.459502094784185 71.71546386753877, 0.7754806196317077 46.22499024216086 M0.15795289166271687 47.54403345100582 C14.033892759820448 35.36161647523754, 24.95611629826017 25.43399760873057, 54.6586541403085 0.8940068315714598 M-0.2964280927553773 46.11953460518271 C11.624675653027372 36.88732785330154, 24.977761732405053 25.55632535050623, 53.18854948040098 -0.5280315643176436" stroke="#e67700" stroke-width="1" fill="none"></path></g><g><g transform="translate(167.90464531560133 106.1689898741443) rotate(0 51.421421636337186 38.36413543722536)"><path d="M-0.930011709406972 -0.5952247839421033 C16.25073363895023 11.958128453961693, 86.42399096612155 63.24113909091395, 103.7728549820813 76.25069617098083 M0.7825934138149022 1.7066782591491938 C17.806723724254013 14.305536152891001, 86.25054206941546 64.44944619055431, 103.19464804208602 77.3234956583928" stroke="#e67700" stroke-width="1" fill="none"></path></g><g transform="translate(167.90464531560133 106.1689898741443) rotate(0 51.421421636337186 38.36413543722536)"><path d="M73.46154749340482 69.89807961669744 C83.31632944469949 72.17785271679163, 95.60642088300077 76.13177807290646, 102.93409180431391 76.0133421610098 M73.75547219294228 67.93725098923774 C84.78484826948781 71.55852740674565, 95.43168137251968 74.16932222452684, 103.56497822026486 77.53152652950843" stroke="#e67700" stroke-width="1" fill="none"></path></g><g transform="translate(167.90464531560133 106.1689898741443) rotate(0 51.421421636337186 38.36413543722536)"><path d="M85.71333430108217 53.43558520044744 C91.3174169609398 61.503529041711886, 99.22914565409803 71.34057768226612, 102.93409180431391 76.0133421610098 M86.00725900061963 51.47475657298774 C92.52941245953129 61.39051874581659, 98.53249502231272 70.24103341339361, 103.56497822026486 77.53152652950843" stroke="#e67700" stroke-width="1" fill="none"></path></g></g><g><g transform="translate(295.71917546371265 104.80580550340142) rotate(0 2.8755409597532093 40.47966102236349)"><path d="M0.8309717696160079 0.6382911343127489 C1.92772065055622 13.957670426397977, 5.160799374294943 66.51733372673124, 5.942988700181445 79.7324310211358 M-0.19190678067505362 -0.07220996551215642 C0.7808450986172094 13.427902778416332, 4.097755800200171 67.50096859797566, 4.864399052173098 81.0315320102391" stroke="#e67700" stroke-width="1" fill="none"></path></g><g transform="translate(295.71917546371265 104.80580550340142) rotate(0 2.8755409597532093 40.47966102236349)"><path d="M-5.989758712998055 53.08599925083859 C-4.910095119907817 59.102066575202926, -1.6404428034349952 66.1363186757296, 5.793798823788961 80.08790767955456 M-6.9145806457981696 53.00648105652822 C-3.8296494019316407 59.428108832428286, -1.22213646803079 64.96703590305985, 4.091021805949708 81.33847956097547" stroke="#e67700" stroke-width="1" fill="none"></path></g><g transform="translate(295.71917546371265 104.80580550340142) rotate(0 2.8755409597532093 40.47966102236349)"><path d="M14.495172391760091 51.866327155908266 C10.515757860360061 58.32535389140027, 8.728200638081438 65.66071207429975, 5.793798823788961 80.08790767955456 M13.570350458959977 51.7868089615979 C12.23353675505589 58.40706490609829, 10.426615121194715 64.20882725939012, 4.091021805949708 81.33847956097547" stroke="#e67700" stroke-width="1" fill="none"></path></g></g><g><g transform="translate(401.41305506038043 102.81123518994903) rotate(0 -29.50453091260249 38.06227062564864)"><path d="M0.7982659142464399 1.0939465899020433 C-8.952825117447167 13.451953659245609, -49.39714654106989 61.905305772469646, -59.434598885629704 74.51637947694505 M-0.24178321011364456 0.6226646042615176 C-9.973804818131715 13.060821915456893, -49.912199823449996 63.09831200246633, -59.80732773945146 75.50187664703573" stroke="#e67700" stroke-width="1" fill="none"></path></g><g transform="translate(401.41305506038043 102.81123518994903) rotate(0 -29.50453091260249 38.06227062564864)"><path d="M-48.4251174795004 48.891925615430225 C-54.04165085278682 55.300801530544696, -52.43005639366341 59.923907819734595, -61.493956157494715 76.26150928103472 M-50.057430750553536 47.49801860953157 C-52.329958936186614 55.627640477911285, -55.378646567661875 65.79434644220684, -60.2762547717657 75.92509980631168" stroke="#e67700" stroke-width="1" fill="none"></path></g><g transform="translate(401.41305506038043 102.81123518994903) rotate(0 -29.50453091260249 38.06227062564864)"><path d="M-32.382955327827055 61.68915327946976 C-41.61075380465938 65.35528529135402, -43.57114367220496 67.12893175034293, -61.493956157494715 76.26150928103472 M-34.01526859888019 60.2952462735711 C-41.25171509126817 64.52281103493398, -49.29503025896601 70.70517965905036, -60.2762547717657 75.92509980631168" stroke="#e67700" stroke-width="1" fill="none"></path></g></g><g transform="translate(245.76953125 483.191162109375) rotate(0 45.375 55.939453125)"><path d="M22.6875 0 L73.3798828125 0.3544921875 L81.8876953125 3.1904296875 L85.078125 5.671875 L87.5595703125 8.8623046875 L89.33203125 12.76171875 L90.75 22.6875 L90.75 89.19140625 L89.33203125 99.1171875 L87.5595703125 103.0166015625 L85.078125 106.20703125 L81.8876953125 108.6884765625 L77.98828125 110.4609375 L68.0625 111.87890625 L17.3701171875 111.5244140625 L8.8623046875 108.6884765625 L5.671875 106.20703125 L3.1904296875 103.0166015625 L1.41796875 99.1171875 L0 89.19140625 L0.3544921875 17.3701171875 L1.41796875 12.76171875 L5.671875 5.671875 L12.76171875 1.41796875 L22.6875 0" stroke="none" stroke-width="0" fill="#ffffff"></path><path d="M22.6875 0 M22.6875 0 C37.14355381425703 0, 51.599607628514065 0, 68.0625 0 M22.6875 0 C35.55033048227197 0, 48.413160964543934 0, 68.0625 0 M68.0625 0 C83.1875 0, 90.75 7.5625, 90.75 22.6875 M68.0625 0 C83.1875 0, 90.75 7.5625, 90.75 22.6875 M90.75 22.6875 C90.75 37.87634706208155, 90.75 53.0651941241631, 90.75 89.19140625 M90.75 22.6875 C90.75 47.66678264609982, 90.75 72.64606529219964, 90.75 89.19140625 M90.75 89.19140625 C90.75 104.31640625, 83.1875 111.87890625, 68.0625 111.87890625 M90.75 89.19140625 C90.75 104.31640625, 83.1875 111.87890625, 68.0625 111.87890625 M68.0625 111.87890625 C52.2650354370824 111.87890625, 36.46757087416481 111.87890625, 22.6875 111.87890625 M68.0625 111.87890625 C57.25987029686803 111.87890625, 46.45724059373606 111.87890625, 22.6875 111.87890625 M22.6875 111.87890625 C7.5625 111.87890625, 0 104.31640625, 0 89.19140625 M22.6875 111.87890625 C7.5625 111.87890625, 0 104.31640625, 0 89.19140625 M0 89.19140625 C0 69.90433736876912, 0 50.61726848753824, 0 22.6875 M0 89.19140625 C0 65.25524358508665, 0 41.31908092017329, 0 22.6875 M0 22.6875 C0 7.5625, 7.5625 0, 22.6875 0 M0 22.6875 C0 7.5625, 7.5625 0, 22.6875 0" stroke="#364fc7" stroke-width="1" fill="none"></path></g><g transform="translate(254.55078125 520.130615234375) rotate(0 36 20)"><text x="36" y="14" font-family="Virgil, Segoe UI Emoji" font-size="16px" fill="#000000" text-anchor="middle" style="white-space: pre;" direction="ltr">Activities</text><text x="36" y="34" font-family="Virgil, Segoe UI Emoji" font-size="16px" fill="#000000" text-anchor="middle" style="white-space: pre;" direction="ltr">Members</text></g><g><g transform="translate(287.79650801270736 443.116943359375) rotate(0 0.4638732334994984 16.505859375)"><path d="M0 0 C0.15462441116649947 5.501953125, 0.7731220558324973 27.509765625, 0.9277464669989968 33.01171875 M0 0 C0.15462441116649947 5.501953125, 0.7731220558324973 27.509765625, 0.9277464669989968 33.01171875" stroke="#364fc7" stroke-width="1" fill="none"></path></g><g transform="translate(287.79650801270736 443.116943359375) rotate(0 0.4638732334994984 16.505859375)"><path d="M-5.153488176651411 17.659938485389038 C-3.0739226985533166 22.909700110516663, -0.994357220455222 28.15946173564429, 0.9277464669989968 33.01171875 M-5.153488176651411 17.659938485389038 C-3.857757598758834 20.930947134054453, -2.5620270208662563 24.201955782719867, 0.9277464669989968 33.01171875" stroke="#364fc7" stroke-width="1" fill="none"></path></g><g transform="translate(287.79650801270736 443.116943359375) rotate(0 0.4638732334994984 16.505859375)"><path d="M6.137184601650251 17.342630505776157 C4.355742453809448 22.70090014925775, 2.574300305968646 28.059169792739343, 0.9277464669989968 33.01171875 M6.137184601650251 17.342630505776157 C5.027207980084563 20.681248065441743, 3.9172313585188747 24.019865625107332, 0.9277464669989968 33.01171875" stroke="#364fc7" stroke-width="1" fill="none"></path></g></g><g transform="translate(247.177734375 293.35546875) rotate(0 44.5 20)"><text x="44.5" y="14" font-family="Virgil, Segoe UI Emoji" font-size="16px" fill="#000000" text-anchor="middle" style="white-space: pre;" direction="ltr">RedwoodJS</text><text x="44.5" y="34" font-family="Virgil, Segoe UI Emoji" font-size="16px" fill="#000000" text-anchor="middle" style="white-space: pre;" direction="ltr">API</text></g><g transform="translate(412.69921875 150.5367431640625) rotate(0 71 10)"><text x="0" y="14" font-family="Virgil, Segoe UI Emoji" font-size="16px" fill="#000000" text-anchor="start" style="white-space: pre;" direction="ltr">Incoming Webhooks</text></g><g transform="translate(372.9765625 241.0484619140625) rotate(0 68 10)"><text x="0" y="14" font-family="Virgil, Segoe UI Emoji" font-size="16px" fill="#000000" text-anchor="start" style="white-space: pre;" direction="ltr">Outgoing Webhook</text></g><g transform="translate(381.5546875 360.0640869140625) rotate(0 67 10)"><text x="0" y="14" font-family="Virgil, Segoe UI Emoji" font-size="16px" fill="#000000" text-anchor="start" style="white-space: pre;" direction="ltr">Incoming Webhook</text></g><g><g transform="translate(338.51953125 365.1109619140625) rotate(0 -29.08203125 29.619140625)"><path d="M0 0 C-9.694010416666666 9.873046875, -48.470052083333336 49.365234375, -58.1640625 59.23828125 M0 0 C-9.694010416666666 9.873046875, -48.470052083333336 49.365234375, -58.1640625 59.23828125" stroke="#364fc7" stroke-width="1" fill="none"></path></g><g transform="translate(338.51953125 365.1109619140625) rotate(0 -29.08203125 29.619140625)"><path d="M-45.734813475923985 31.934183229785063 C-49.47342639268069 40.14702483759535, -53.21203930943741 48.35986644540564, -58.1640625 59.23828125 M-45.734813475923985 31.934183229785063 C-48.31530952225585 37.60291807075107, -50.895805568587726 43.271652911717084, -58.1640625 59.23828125" stroke="#364fc7" stroke-width="1" fill="none"></path></g><g transform="translate(338.51953125 365.1109619140625) rotate(0 -29.08203125 29.619140625)"><path d="M-31.09196945190366 46.31149595762303 C-39.2350259275765 50.19976357319717, -47.37808240324934 54.0880311887713, -58.1640625 59.23828125 M-31.09196945190366 46.31149595762303 C-36.71253662705802 48.99528789663276, -42.33310380221239 51.67907983564248, -58.1640625 59.23828125" stroke="#364fc7" stroke-width="1" fill="none"></path></g></g><g><g transform="translate(278.56640625 197.2047119140625) rotate(0 28.923828125 35.017578125)"><path d="M0 0 C9.641276041666666 11.672526041666666, 48.206380208333336 58.362630208333336, 57.84765625 70.03515625 M0 0 C9.641276041666666 11.672526041666666, 48.206380208333336 58.362630208333336, 57.84765625 70.03515625" stroke="#c92a2a" stroke-width="1" fill="none"></path></g><g transform="translate(278.56640625 197.2047119140625) rotate(0 28.923828125 35.017578125)"><path d="M31.983902960047324 54.83429226940791 C41.82974670410768 60.620974884640155, 51.67559044816803 66.4076574998724, 57.84765625 70.03515625 M31.983902960047324 54.83429226940791 C41.95207881199415 60.69287294644095, 51.92025466394098 66.55145362347399, 57.84765625 70.03515625" stroke="#c92a2a" stroke-width="1" fill="none"></path></g><g transform="translate(278.56640625 197.2047119140625) rotate(0 28.923828125 35.017578125)"><path d="M47.80579878728656 41.76571871228896 C51.62854478898196 52.52736113937254, 55.45129079067736 63.28900356645612, 57.84765625 70.03515625 M47.80579878728656 41.76571871228896 C51.6760414371574 52.661071813302314, 55.54628408702824 63.55642491431568, 57.84765625 70.03515625" stroke="#c92a2a" stroke-width="1" fill="none"></path></g></g><g transform="translate(116.265625 237.3179931640625) rotate(0 42.712890625 86.890625)"><path d="M0 0 L85.42578125 0 L85.42578125 173.78125 L0 173.78125" stroke="none" stroke-width="0" fill="#ffffff"></path><path d="M0 0 C23.04093395858472 0, 46.08186791716944 0, 85.42578125 0 M0 0 C29.171815294168844 0, 58.34363058833769 0, 85.42578125 0 M85.42578125 0 C85.42578125 51.28389558102645, 85.42578125 102.5677911620529, 85.42578125 173.78125 M85.42578125 0 C85.42578125 43.93827477251471, 85.42578125 87.87654954502942, 85.42578125 173.78125 M85.42578125 173.78125 C58.2656011269155 173.78125, 31.105421003830998 173.78125, 0 173.78125 M85.42578125 173.78125 C51.696561493000985 173.78125, 17.96734173600197 173.78125, 0 173.78125 M0 173.78125 C0 137.57077527232758, 0 101.36030054465517, 0 0 M0 173.78125 C0 114.6341689532128, 0 55.487087906425586, 0 0" stroke="#862e9c" stroke-width="1" fill="none"></path></g><g transform="translate(123.478515625 314.2086181640625) rotate(0 35.5 10)"><text x="35.5" y="14" font-family="Virgil, Segoe UI Emoji" font-size="16px" fill="#862e9c" text-anchor="middle" style="white-space: pre;" direction="ltr">Simulator</text></g><g transform="translate(12.77734375 215.3961181640625) rotate(0 27.01171875 28.95703125)"><path d="M28 0 L54.0234375 29 L28 57.9140625 L0 29" stroke="none" stroke-width="0" fill="#ffffff" fill-rule="evenodd"></path><path d="M28 0 C35.45974473306778 8.31299082832411, 42.919489466135566 16.62598165664822, 54.0234375 29 M28 0 C38.12637641462861 11.284632017742844, 48.252752829257226 22.569264035485688, 54.0234375 29 M54.0234375 29 C44.854891103102275 39.18696794203497, 35.686344706204544 49.373935884069944, 28 57.9140625 M54.0234375 29 C44.504317246583376 39.576482755297185, 34.98519699316675 50.15296551059437, 28 57.9140625 M28 57.9140625 C20.159425789490342 49.817532044336986, 12.318851578980684 41.72100158867397, 0 29 M28 57.9140625 C17.059703981503844 46.61661954116789, 6.1194079630076885 35.319176582335785, 0 29 M0 29 C7.277534371241927 21.462553686928004, 14.555068742483854 13.925107373856008, 28 0 M0 29 C6.658139515295625 22.104069787729532, 13.31627903059125 15.208139575459063, 28 0" stroke="#862e9c" stroke-width="1" fill="none"></path></g><g transform="translate(11.546875 293.2203369140625) rotate(0 27.01171875 28.95703125)"><path d="M28 0 L54.0234375 29 L28 57.9140625 L0 29" stroke="none" stroke-width="0" fill="#ffffff" fill-rule="evenodd"></path><path d="M28 0 C37.519120253416624 10.607917856704445, 47.03824050683325 21.21583571340889, 54.0234375 29 M28 0 C35.28709617611821 8.12059471802786, 42.57419235223642 16.24118943605572, 54.0234375 29 M54.0234375 29 C43.855433583255945 40.29744295883211, 33.68742966651189 51.594885917664215, 28 57.9140625 M54.0234375 29 C47.25963532628157 36.515110130570974, 40.49583315256314 44.03022026114195, 28 57.9140625 M28 57.9140625 C21.341860484704377 51.038567425750806, 14.68372096940875 44.16307235150161, 0 29 M28 57.9140625 C17.10032823719084 46.65856997930896, 6.200656474381681 35.403077458617915, 0 29 M0 29 C10.945426142588259 17.66366578089073, 21.890852285176518 6.327331561781463, 28 0 M0 29 C7.367960506305099 21.368898047041146, 14.735921012610198 13.737796094082293, 28 0" stroke="#862e9c" stroke-width="1" fill="none"></path></g><g transform="translate(10 370.2125244140625) rotate(0 27.01171875 28.95703125)"><path d="M28 0 L54.0234375 29 L28 57.9140625 L0 29" stroke="none" stroke-width="0" fill="#ffffff" fill-rule="evenodd"></path><path d="M28 0 C38.04227256121012 11.190908360015602, 48.08454512242024 22.381816720031203, 54.0234375 29 M28 0 C37.311549293444116 10.376604916621, 46.62309858688823 20.753209833242, 54.0234375 29 M54.0234375 29 C43.64943397827083 40.526324537352046, 33.275430456541656 52.05264907470409, 28 57.9140625 M54.0234375 29 C48.68494749778547 34.93147748369738, 43.34645749557094 40.862954967394764, 28 57.9140625 M28 57.9140625 C22.2257138248533 51.95127423710437, 16.451427649706602 45.98848597420874, 0 29 M28 57.9140625 C18.01580045856535 47.603927873088836, 8.031600917130707 37.293793246177664, 0 29 M0 29 C9.810565722361208 18.83905693041161, 19.621131444722415 8.678113860823213, 28 0 M0 29 C9.081718021258713 19.59393490655348, 18.163436042517425 10.187869813106953, 28 0" stroke="#862e9c" stroke-width="1" fill="none"></path></g><g transform="translate(11.30859375 443.0172119140625) rotate(0 27.01171875 28.95703125)"><path d="M28 0 L54.0234375 29 L28 57.9140625 L0 29" stroke="none" stroke-width="0" fill="#ffffff" fill-rule="evenodd"></path><path d="M28 0 C33.46304436960126 6.087907745409757, 38.926088739202534 12.175815490819515, 54.0234375 29 M28 0 C37.748032581996085 10.863013192545623, 47.49606516399217 21.726026385091245, 54.0234375 29 M54.0234375 29 C47.5720397474397 36.168004527837184, 41.120641994879406 43.33600905567437, 28 57.9140625 M54.0234375 29 C47.17125217651119 36.61331068214713, 40.31906685302238 44.22662136429426, 28 57.9140625 M28 57.9140625 C21.65267475284636 51.35952825342756, 15.30534950569272 44.804994006855125, 0 29 M28 57.9140625 C16.954484116658566 46.50796476444011, 5.9089682333171325 35.10186702888022, 0 29 M0 29 C8.87859922014177 19.804307950567456, 17.75719844028354 10.608615901134907, 28 0 M0 29 C10.729116368666293 17.88770090388134, 21.458232737332587 6.77540180776268, 28 0" stroke="#862e9c" stroke-width="1" fill="none"></path></g></svg>